<?xml version="1.0" encoding="UTF-8"?>
<svg xmlns="http://www.w3.org/2000/svg" xmlns:xlink="http://www.w3.org/1999/xlink" width="36px" height="36px" viewBox="0 0 36 36" version="1.1">
<g id="surface1">
<path style=" stroke:none;fill-rule:nonzero;fill:rgb(100%,100%,100%);fill-opacity:1;" d="M 9.25 3.449219 C 8.449219 3.648438 7.050781 4.199219 6.148438 4.648438 C 2.101562 6.800781 0.601562 12.800781 3 17.5 C 3.898438 19.351562 17.601562 33 18.5 33 C 19.550781 33 34.351562 18.050781 35 16.351562 C 35.648438 14.550781 35.648438 10.949219 34.949219 9.148438 C 32.800781 3.449219 25.25 1.449219 20.199219 5.300781 C 18.851562 6.300781 18.5 6.351562 18.050781 5.800781 C 16.601562 4.050781 11.898438 2.800781 9.25 3.449219 Z M 14.398438 6.699219 C 15.148438 7.101562 16.300781 8 16.949219 8.699219 C 17.648438 9.398438 18.351562 10 18.601562 10 C 18.800781 10 19.898438 9.199219 21 8.148438 C 24.800781 4.75 30.199219 5.5 32.199219 9.699219 C 34.101562 13.699219 33.25 15.398438 25.351562 23.351562 L 18.800781 30 L 12.351562 23.648438 C 5.398438 16.699219 4.5 15.5 4.5 12.75 C 4.5 7.699219 9.949219 4.398438 14.398438 6.699219 Z M 14.398438 6.699219 "/>
</g>
</svg>
